<svg width="24" height="24" viewBox="0 0 24 24" fill="none" xmlns="http://www.w3.org/2000/svg">
<g clip-path="url(#clip0_675_5985)">
<path d="M13.8008 7.64876L16.3257 7.63086L16.3076 10.1197" stroke="#fff" stroke-width="1.5" stroke-linecap="round" stroke-linejoin="round"/>
<path d="M16.3258 7.63086L14.7964 9.16175C14.3759 9.57077 13.8369 9.83978 13.2545 9.93125C12.6721 10.0227 12.0753 9.93211 11.5475 9.67204C10.8562 9.34912 10.1108 9.15489 9.34839 9.09908" stroke="#fff" stroke-width="1.5" stroke-linecap="round" stroke-linejoin="round"/>
<path d="M15.0769 15.196C15.0769 16.4089 14.7133 17.5945 14.0322 18.603C13.351 19.6115 12.3828 20.3975 11.2501 20.8617C10.1174 21.3258 8.87093 21.4473 7.66843 21.2106C6.46592 20.974 5.36135 20.39 4.49439 19.5323C3.62743 18.6747 3.03702 17.582 2.79783 16.3924C2.55863 15.2028 2.6814 13.9697 3.15059 12.8492C3.61979 11.7286 4.41434 10.7708 5.43378 10.097C6.45321 9.42314 7.65174 9.06348 8.87781 9.06348H9.3484" stroke="#fff" stroke-width="1.5" stroke-linecap="round" stroke-linejoin="round"/>
<path d="M10.1902 16.351L7.67432 16.3689L7.69242 13.8711" stroke="#fff" stroke-width="1.5" stroke-linecap="round" stroke-linejoin="round"/>
<path d="M7.67432 16.3693L9.23993 14.8474C9.6625 14.4418 10.2013 14.1752 10.7828 14.0838C11.3642 13.9925 11.96 14.0809 12.4888 14.3371C13.1759 14.664 13.9186 14.8613 14.6788 14.919" stroke="#fff" stroke-width="1.5" stroke-linecap="round" stroke-linejoin="round"/>
<path d="M8.9231 8.8034C8.9231 7.5905 9.28667 6.40485 9.96783 5.39637C10.649 4.38788 11.6172 3.60186 12.7499 3.13771C13.8826 2.67356 15.1291 2.55211 16.3316 2.78874C17.5341 3.02536 18.6387 3.60942 19.5056 4.46707C20.3726 5.32471 20.963 6.41742 21.2022 7.60701C21.4414 8.7966 21.3186 10.0296 20.8494 11.1502C20.3802 12.2708 19.5857 13.2285 18.5662 13.9024C17.5468 14.5762 16.3483 14.9359 15.1222 14.9359H14.6426" stroke="#fff" stroke-width="1.5" stroke-linecap="round" stroke-linejoin="round"/>
</g>
<defs>
<clipPath id="clip0_675_5985">
<rect width="20" height="20" fill="white" transform="translate(2 2)"/>
</clipPath>
</defs>
</svg>
