<?xml version="1.0" encoding="UTF-8"?><svg id="Layer_2" xmlns="http://www.w3.org/2000/svg" viewBox="0 0 128.56 90.07"><defs><style>.cls-1{fill:#f68d36;}.cls-2{fill:#e65d02;}.cls-3{fill:#fff;}.cls-4{fill:#202740;}.cls-5{fill:#6fbb3f;}</style></defs><g id="Layer_1-2"><g><path class="cls-5" d="m124.48,34.31c-1.45,0-2.72.76-3.44,1.9h-21.77l-4.8,4.8h-20.32c.47,1.4.9,2.85,1.29,4.36h20.84l4.8-4.8h19.97c.72,1.14,1.99,1.91,3.44,1.91,2.26,0,4.08-1.83,4.08-4.08s-1.83-4.08-4.08-4.08Z"/><path class="cls-5" d="m106.42,54.38c.75.99,1.92,1.64,3.26,1.64,2.26,0,4.08-1.83,4.08-4.08s-1.83-4.08-4.08-4.08c-1.56,0-2.89.88-3.58,2.16h-29.6c.28,1.41.53,2.87.76,4.36h29.16Z"/><path class="cls-5" d="m77.5,58.57s0,0,0,0c0,0,0,0,0,0-.09,1.47-.4,2.92-.9,4.29h19.76l4.89,4.89h13.36c.72,1.14,1.99,1.9,3.44,1.9,2.26,0,4.08-1.83,4.08-4.08s-1.83-4.08-4.08-4.08c-1.45,0-2.72.76-3.44,1.9h-11.55l-4.89-4.89h-20.69s0,.04,0,.06h0Z"/><path class="cls-5" d="m74.36,67c-3.3,4.6-7.4,8.52-12.07,11.58-.11.07-.23.14-.34.21-.46.3-.93.59-1.4.87-.48.29-.96.55-1.43.82-.04.02-.07.04-.11.06-2.82,1.54-5.65,2.69-8.36,3.49-.15.05-.31.1-.46.15-.19.06-.39.1-.58.15-.3.08-.6.16-.89.23-.44.11-.88.2-1.32.29-.3.06-.6.11-.89.17-.35.06-.71.12-1.06.17-.52.08-1.03.13-1.54.18-.15.01-.3.03-.44.05-.66.06-1.31.09-1.94.11-.07,0-.14,0-.21.01h0s0,0,0,0h0c-.07,0-.14,0-.21,0h-.03s-.03,0-.04,0h0s-.01,0-.01,0h0s-.1,0-.1,0c0,0-.02,0-.03,0h0c-7.71-.11-18.39-3.46-27.42-12.09-2.09-1.99-4.09-4.27-5.94-6.85-1.69-2.37-2.68-5.16-2.85-8.07h.01s.01,0,.01,0c-.09-1.15-.05-2.31.12-3.45.83-6.66,2.62-13.16,5.31-19.31-2.33-5.42-3.92-11.13-4.73-16.97-.52-4.49-.33-9.09,1.4-12.86.4-.85,1.33-1.32,2.25-1.13,1.55.3,4.22,1.28,7.93,4.22,3.84,3.19,7.3,6.8,10.31,10.79,4.4-1.41,8.99-2.11,13.61-2.07h0c.07,0,.14,0,.21,0s.14,0,.21,0h0c4.49-.03,8.96.63,13.25,1.96,2.98-3.93,6.4-7.5,10.19-10.65,3.72-2.96,6.39-3.95,7.95-4.25.92-.19,1.85.28,2.25,1.13,1.74,3.79,1.93,8.42,1.39,12.92-.77,5.57-2.26,11.01-4.42,16.19-.03.07-.06.15-.09.22.3.61.58,1.24.86,1.89h10.51l7.7-7.7h5.7c.72,1.14,1.99,1.9,3.44,1.9,2.26,0,4.08-1.83,4.08-4.08s-1.83-4.08-4.08-4.08c-1.45,0-2.72.76-3.44,1.9h-7.51l-7.7,7.69h-3.7c1.51-4.35,2.62-8.83,3.25-13.4v-.09c.73-6.08.13-11.27-1.79-15.44h0C78.04,1.51,75.68,0,73.1,0c-.43,0-.86.04-1.29.13-3.04.59-6.39,2.33-9.96,5.17l-.07.06c-3.25,2.7-6.25,5.69-8.95,8.93-3.66-.87-7.4-1.31-11.16-1.31h-1.19c-3.87,0-7.73.47-11.48,1.4-2.74-3.29-5.77-6.32-9.06-9.05l-.07-.06C15.41,1.76,12.02.54,9.97.14,6.93-.49,3.86,1.06,2.57,3.88.67,7.99.07,13.15.77,19.2v.11c.79,5.58,2.23,11.04,4.3,16.27C2.67,41.59,1.04,47.88.21,54.29c-.19,1.29-.25,2.6-.18,3.91,0,.17,0,.33,0,.5.01.24.03.47.05.71.34,3.53,1.6,6.91,3.66,9.8,1.85,2.58,3.93,4.99,6.21,7.21l.26.25c.2.19.4.38.6.56l.13.12s.33.31.41.38c.14.13.28.25.42.37l.38.33c.12.11.24.21.36.32.12.1.22.18.33.27l.36.3c.16.14.32.27.49.4.09.07.57.45.57.45.2.16.41.32.62.47l.35.26c.28.21.56.41.84.61l.29.2c.31.21.61.43.92.63l.23.15c.32.21.65.42.97.62l.2.12c.34.21.67.41,1.02.61l.16.09c.35.2.71.4,1.06.6l.12.06c.36.2.73.39,1.09.58l.12.06c.37.18.73.37,1.1.54l.11.05c.37.17.74.34,1.1.5l.12.05c.37.16.73.32,1.09.46l.13.05c.36.15.73.29,1.08.42l.15.05c.35.13.71.26,1.06.38l.18.06c.34.11.68.23,1.01.33l.21.06c.33.1.65.2.97.29l.25.07c.31.09.62.17.92.25l.31.07c.28.07.57.14.85.2l.34.07c.27.06.53.12.8.17l.46.08c.22.04.44.08.66.12l.6.09c.17.03.34.05.51.08.12.02.65.08.65.08.15.02.29.04.44.06.15.02,1.07.1,1.07.1.17.01.33.02.5.03l.55.04c.19.01.39.02.58.02h.38c.14.03.28.03.42.03h.42c.14,0,.28,0,.41-.02,2.03-.06,4.04-.28,6.03-.65l.13-.02c.37-.07.75-.15,1.13-.23h.06c7.61-1.75,14.68-5.31,20.6-10.41,2.82-2.36,5.35-5.05,7.58-7.97h1.13l7.62,7.62h17.15c.72,1.14,1.99,1.9,3.44,1.9,2.26,0,4.08-1.83,4.08-4.08s-1.83-4.08-4.08-4.08c-1.45,0-2.72.76-3.44,1.9h-15.35l-7.62-7.62h-5.39c-.04.06-.08.13-.12.19-.1.14-.2.27-.3.41Z"/><path class="cls-5" d="m67.21,25.83c-2.3-2.41-5-4.4-7.99-5.87,2.99,1.48,5.69,3.47,7.99,5.87Z"/><path class="cls-5" d="m9.58,8.72c1.26.49,3.48,1.91,6.33,4.45-2.85-2.54-5.07-3.96-6.33-4.45-1.86,5.68.3,14.63,2.33,20.86,0,0,0,0,0,0-2.03-6.22-4.19-15.17-2.33-20.86Z"/><path class="cls-5" d="m69.96,29.15s0,0,0,0c1.49-4.65,2.99-10.69,2.89-15.77.11,5.07-1.4,11.12-2.89,15.77Z"/><path class="cls-5" d="m26.82,63.53s0,0,0,0c-2.39-2.75-5.11-4.39-7.83-5.29,2.72.91,5.44,2.54,7.83,5.3Z"/><path class="cls-2" d="m15.9,13.17c-2.85-2.54-5.07-3.96-6.33-4.45-1.86,5.68.3,14.64,2.33,20.86.68-.97,1.41-1.91,2.19-2.81h0c2.4-2.75,5.3-5.01,8.55-6.66-2.48-2.9-4.76-5.19-6.74-6.95Z"/><path class="cls-2" d="m72.14,8.73c-2.11.82-6.93,4.28-12.93,11.23,2.99,1.47,5.7,3.46,7.99,5.87.29.31.58.62.86.94h0c.66.75,1.28,1.54,1.88,2.38,1.49-4.65,2.99-10.69,2.89-15.77-.04-1.69-.25-3.27-.7-4.66Z"/><path class="cls-1" d="m72.68,37.15c-.28-.64-.56-1.27-.86-1.89.03-.07.06-.15.09-.22,2.16-5.19,3.65-10.63,4.42-16.19.53-4.51.35-9.13-1.39-12.92-.4-.85-1.33-1.32-2.25-1.13-1.56.3-4.23,1.28-7.95,4.25-3.79,3.15-7.21,6.72-10.19,10.65-4.29-1.33-8.76-1.99-13.25-1.95h0c-.07,0-.14,0-.21,0s-.14,0-.21,0h0c-4.62-.04-9.21.66-13.61,2.07-3.01-3.98-6.47-7.6-10.31-10.79-3.71-2.94-6.38-3.92-7.93-4.22-.92-.19-1.85.28-2.25,1.13-1.73,3.77-1.92,8.38-1.4,12.86.81,5.84,2.4,11.55,4.73,16.97-2.69,6.15-4.48,12.65-5.31,19.31-.17,1.14-.21,2.3-.12,3.45h0c2.36-.77,8.32-2.28,14.3-.28,2.72.91,5.44,2.54,7.83,5.29,0,0,0,0,0,0,1.63-6.45,7.53-10.9,14.18-10.7h.01c2.37-.04,4.72.47,6.86,1.49,1.81.95,3.38,2.27,4.63,3.84.03.04.06.08.09.12.28.36.54.72.79,1.1.05.07.08.15.12.22.22.36.43.72.62,1.09.06.12.11.25.17.38.16.33.31.66.44,1.01.07.19.12.39.19.59.1.29.2.57.28.87,7.77-8.97,19.07-6.05,22.3-4.96h0s0,0,0,0c0-.02,0-.04,0-.06.09-1.15.04-2.31-.13-3.45h0c-.03-.23-.07-.45-.11-.68-.23-1.49-.48-2.95-.76-4.36-.32-1.6-.67-3.15-1.06-4.65-.39-1.51-.82-2.96-1.29-4.36-.45-1.34-.93-2.63-1.46-3.86ZM14.09,26.78h0c-.78.89-1.51,1.83-2.19,2.81,0,0,0,0,0,0-2.03-6.23-4.18-15.18-2.33-20.86,1.26.49,3.48,1.91,6.33,4.45,1.98,1.76,4.25,4.05,6.74,6.95-3.25,1.65-6.16,3.91-8.55,6.66Zm19.36,23.08c-.98,1.99-8.98-.15-12.95-2.88-.55-.38-.88-1.01-.87-1.68l.4-3.2c0-.54.44-.98.97-.98.12,0,.23.02.35.06,3.46,1.3,13.2,5.76,12.1,8.67Zm1.48-10.8c-.45.77-1.3,1.2-2.19,1.1h0c-1.95-.15-6.03-.56-7.3-1.36-1.7-1.05-.99-5.94,5.12-5.26,4.66.52,5.22,3.7,4.37,5.52Zm12.49,0c-.85-1.82-.29-5,4.37-5.52,6.11-.68,6.82,4.2,5.12,5.26-1.27.79-5.35,1.2-7.3,1.36h0c-.88.1-1.74-.34-2.18-1.1Zm14.41,7.91c-3.97,2.73-11.97,4.87-12.95,2.88-1.11-2.91,8.64-7.37,12.1-8.67.11-.04.23-.07.35-.07.54,0,.97.44.97.98l.4,3.2h0c.05.68-.29,1.33-.88,1.68Zm8.12-17.82c-.6-.84-1.23-1.63-1.88-2.38h0c-.28-.32-.57-.63-.86-.94-2.3-2.41-5-4.4-7.99-5.87,6-6.96,10.82-10.42,12.93-11.23.45,1.39.67,2.97.7,4.66.11,5.07-1.4,11.12-2.89,15.77,0,0,0,0,0,0Z"/><path class="cls-4" d="m50.67,74.38c.02-.82.23-1.63.6-2.37h0s0,0,0,0h0s.02-.07.02-.1c0,0,0,0,0,0,0-.17-.12-.32-.29-.33-.99-.02-3.11-.07-3.54-.04h-3.75c-.36-.58-.9-1.02-1.54-1.25h0v-2.52h0c3.35-.43,4.5-2.84,4.83-5.03.11-.72.13-1.42.11-2.02-.03-1-.85-1.79-1.85-1.79h-8.35c-1,0-1.82.79-1.85,1.79-.07,1.96.29,5.01,2.81,6.39.58.32,1.28.55,2.11.65h0s0,0,0,0v2.52c-.64.22-1.19.66-1.54,1.25h-3.75c-.43-.03-2.55.02-3.54.04-.04,0-.07.01-.1.03-.16.07-.23.25-.16.41.37.74.57,1.54.6,2.36.03.25.25.44.5.43h.52l1.21,3.2s.03.06.05.08c0,0,0,0,0,0,.09.09.22.08.31,0,.24-.27.45-.56.63-.87.04-.06.06-.14.06-.21v-3.66s0,0,0,0h0c2.06.29,4.14.43,6.23.43h.13c1.48,0,2.95-.09,4.42-.23.61-.06,1.22-.1,1.83-.19h0s0,0,0,0v3.64c0,.08.02.15.06.21.18.31.4.6.63.87.04.04.09.06.15.06.09,0,.18-.06.21-.15l1.21-3.2h.53c.06,0,.12,0,.18-.03.17-.06.3-.21.32-.4Z"/><path class="cls-3" d="m77.5,58.58s0,0,0,0h0s0,0,0,0c-3.23-1.09-14.53-4.01-22.3,4.96-.08-.3-.18-.58-.28-.87-.06-.19-.11-.39-.19-.59-.13-.35-.29-.68-.44-1.01-.06-.12-.1-.25-.17-.38-.19-.37-.4-.73-.62-1.09-.04-.07-.08-.15-.12-.22-.24-.38-.51-.75-.79-1.1-.03-.04-.06-.08-.09-.12-1.25-1.57-2.82-2.88-4.63-3.84-2.14-1.02-4.49-1.53-6.86-1.49h-.01c-6.65-.21-12.55,4.24-14.18,10.7,0,0,0,0,0,0,0,0,0,0,0,0-2.39-2.76-5.11-4.39-7.83-5.3-5.98-2-11.95-.49-14.3.28h0s-.01,0-.01,0h-.01c.17,2.9,1.16,5.7,2.85,8.07,1.85,2.58,3.85,4.86,5.94,6.85,9.03,8.63,19.71,11.98,27.42,12.08h0s.02,0,.03,0h.1s.01,0,.01,0h0s.03,0,.04,0h.03c.07,0,.14,0,.21,0h0s0,0,0,0h0c.07,0,.14-.02.21-.02.63-.01,1.28-.05,1.94-.11.15-.01.3-.03.44-.05.51-.05,1.01-.11,1.54-.18.36-.05.71-.11,1.06-.17.3-.05.59-.11.89-.17.44-.09.88-.19,1.32-.29.3-.07.59-.15.89-.23.19-.05.39-.09.58-.15.15-.05.31-.1.46-.15,2.72-.8,5.54-1.95,8.36-3.49.04-.02.07-.04.11-.06.48-.26.96-.53,1.43-.82.47-.28.94-.57,1.4-.87.11-.07.23-.14.34-.21,4.68-3.06,8.78-6.98,12.07-11.58.1-.14.2-.27.3-.41.04-.06.08-.12.12-.19.76-1.1,1.38-2.29,1.83-3.53.5-1.37.8-2.82.9-4.29,0,0,0,0,0,0Zm-34.29,17.67c-.07-.02-.15-.04-.24-.04-.7,0-.87,2.09-1.88,2.16h0s0,0-.01,0c0,0,0,0-.01,0,0,0,0,0,0,0,0,0-.01,0-.02,0,0,0,0,0,0,0h0s-.03-.01-.04-.02h0c-.96-.14-1.16-2.15-1.83-2.15,0,0,0,0,0,0-.7,0-.76.85-1.42.85,0,0,0,0,0,0-.09,0-.18-.01-.26-.03-.51-.15-.86-.63-.85-1.17v-.62h8.88s0,.62,0,.62c.01.54-.34,1.01-.85,1.17-.09.02-.17.03-.26.03-.08,0-.15-.01-.22-.04-.39-.14-.54-.64-.96-.78Zm6.96-1.44h-.53l-1.21,3.2c-.03.09-.11.15-.21.15-.06,0-.11-.02-.15-.06-.24-.27-.45-.56-.63-.87-.04-.06-.06-.14-.06-.21v-3.64s0,0,0,0h0c-.61.08-1.22.13-1.83.19-1.47.14-2.94.23-4.42.23h-.13c-2.08,0-4.16-.15-6.23-.44h0s0,0,0,0v3.66c0,.08-.02.15-.06.21-.18.31-.39.6-.63.87-.09.08-.22.08-.31,0,0,0,0,0,0,0-.02-.02-.04-.05-.05-.08l-1.21-3.2h-.52c-.25.01-.47-.18-.5-.43-.03-.82-.23-1.63-.6-2.36-.07-.16,0-.34.16-.41.03-.01.07-.02.1-.03.99-.02,3.11-.07,3.54-.04h3.75c.36-.58.9-1.02,1.54-1.25v-2.52s0,0,0,0h0c-.83-.11-1.53-.34-2.11-.65-2.53-1.38-2.88-4.43-2.81-6.39.03-1,.85-1.79,1.85-1.79h8.35c1,0,1.82.79,1.85,1.79.02.6,0,1.3-.11,2.02-.33,2.19-1.47,4.6-4.83,5.03h0v2.52h0c.64.23,1.19.67,1.54,1.25h3.75c.43-.03,2.55.02,3.54.04.17,0,.3.15.29.33,0,0,0,0,0,0,0,.04-.01.07-.02.11h0s0,0,0,0h0c-.37.73-.58,1.54-.6,2.36-.02.19-.15.34-.32.4-.06.02-.12.03-.18.03Z"/><path class="cls-4" d="m44.66,77.03c.51-.15.86-.63.85-1.17v-.62h-8.88v.62c-.01.54.34,1.01.85,1.17.09.02.17.03.26.03,0,0,0,0,0,0,.66,0,.72-.85,1.42-.85,0,0,0,0,0,0,.67,0,.86,2.01,1.83,2.15h0s.03,0,.04.01h0s0,0,0,0c0,0,.01,0,.02,0,0,0,0,0,0,0,0,0,0,0,.01,0,0,0,0,0,.01,0h0c1.01-.07,1.18-2.16,1.88-2.16.09,0,.17.01.24.04.42.14.57.64.96.78.07.02.14.04.22.04.09,0,.18-.01.26-.03Z"/><path class="cls-4" d="m62.32,42.09c0-.54-.44-.98-.97-.98-.12,0-.24.02-.35.07-3.46,1.3-13.21,5.76-12.1,8.67.98,1.99,8.98-.15,12.95-2.88.59-.34.93-.99.88-1.67h0s-.4-3.2-.4-3.2Z"/><path class="cls-4" d="m21.35,41.19c-.11-.04-.23-.06-.35-.06-.54,0-.97.44-.97.98l-.4,3.2c0,.67.32,1.3.87,1.68,3.97,2.73,11.97,4.87,12.95,2.88,1.1-2.91-8.64-7.37-12.1-8.67Z"/><path class="cls-3" d="m30.56,33.54c-6.11-.68-6.82,4.2-5.12,5.26,1.27.79,5.35,1.2,7.3,1.36h0c.88.1,1.74-.33,2.19-1.1.85-1.82.29-5-4.37-5.52Z"/><path class="cls-3" d="m49.61,40.16c1.95-.16,6.03-.57,7.3-1.36,1.7-1.05.99-5.94-5.12-5.26-4.66.52-5.22,3.7-4.37,5.52.45.77,1.3,1.2,2.18,1.1h0Z"/></g></g></svg>